<svg xmlns="http://www.w3.org/2000/svg" viewBox="0 0 24 24" shape-rendering="crispEdges"><path fill="#e8b691" d="M10 1h1v1h-1zM14 1h1v1h-1z"/><path fill="#e7b58f" d="M10 2h2v1h-2zM13 2h2v1h-2z"/><path fill="#806659" d="M9 3h1v1h-1z"/><path fill="#8a5f41" d="M10 3h1v1h-1z"/><path fill="#e4b38e" d="M11 3h2v1h-2zM14 3h1v1h-1z"/><path fill="#d88f59" d="M13 3h1v1h-1z"/><path fill="#7e6558" d="M8 4h1v1h-1z"/><path fill="#3f281f" d="M9 4h1v1h-1z"/><path fill="#895d40" d="M10 4h1v1h-1z"/><path fill="#d68c57" d="M11 4h3v1h-3z"/><path fill="#e3b18d" d="M14 4h2v1h-2z"/><path fill="#7d6458" d="M7 5h1v1h-1z"/><path fill="#502f1e" d="M8 5h2v1h-2z"/><path fill="#3d271e" d="M10 5h1v1h-1z"/><path fill="#875c3f" d="M11 5h1v1h-1z"/><path fill="#d38a55" d="M12 5h3v1h-3z"/><path fill="#e1af8b" d="M15 5h2v1h-2z"/><path fill="#7c6457" d="M5 6h2v1h-2z"/><path fill="#4f2e1d" d="M7 6h2v1h-2z"/><path fill="#3d261d" d="M9 6h1v1h-1z"/><path fill="#865a3e" d="M10 6h1v1h-1z"/><path fill="#d18753" d="M11 6h5v1h-5z"/><path fill="#e0ad8a" d="M16 6h2v1h-2z"/><path fill="#7b6357" d="M5 7h1v1h-1z"/><path fill="#4d2d1d" d="M6 7h3v1h-3z"/><path fill="#3b261d" d="M9 7h1v1h-1z"/><path fill="#84583d" d="M10 7h1v1h-1z"/><path fill="#ce8451" d="M11 7h6v1h-6z"/><path fill="#deab89" d="M17 7h1v1h-1z"/><path fill="#796256" d="M2 8h3v1h-3z"/><path fill="#4b2c1c" d="M5 8h3v1h-3z"/><path fill="#3a251d" d="M8 8h1v1h-1z"/><path fill="#83573b" d="M9 8h1v1h-1z"/><path fill="#2a2b3d" d="M10 8h8v1h-8z"/><path fill="#dcaa87" d="M18 8h1v1h-1z"/><path fill="#786155" d="M3 9h1v1h-1z"/><path fill="#492a1b" d="M4 9h4v1h-4z"/><path fill="#39241c" d="M8 9h1v1h-1z"/><path fill="#81553a" d="M9 9h1v1h-1z"/><path fill="#c97f4d" d="M10 9h4v1h-4z"/><path fill="#0b0b10" d="M14 9h4v1h-4z"/><path fill="#daa886" d="M18 9h1v1h-1z"/><path fill="#766055" d="M4 10h1v1h-1z"/><path fill="#47291a" d="M5 10h2v1h-2z"/><path fill="#37231b" d="M7 10h1v1h-1z"/><path fill="#805339" d="M8 10h1v1h-1z"/><path fill="#c77c4b" d="M9 10h9v1h-9z"/><path fill="#d9a685" d="M18 10h2v1h-2z"/><path fill="#755f54" d="M0 11h4v1h-4z"/><path fill="#452819" d="M4 11h3v1h-3z"/><path fill="#36221b" d="M7 11h1v1h-1z"/><path fill="#7e5238" d="M8 11h1v1h-1z"/><path fill="#c47a49" d="M9 11h10v1h-10z"/><path fill="#d7a583" d="M19 11h2v1h-2z"/><path fill="#735e54" d="M2 12h1v1h-1z"/><path fill="#432719" d="M3 12h3v1h-3z"/><path fill="#35221b" d="M6 12h1v1h-1z"/><path fill="#7d5037" d="M7 12h1v1h-1z"/><path fill="#c27748" d="M8 12h12v1h-12z"/><path fill="#d6a383" d="M20 12h1v1h-1z"/><path fill="#725e53" d="M2 13h1v1h-1z"/><path fill="#412618" d="M3 13h3v1h-3z"/><path fill="#33211a" d="M6 13h1v1h-1z"/><path fill="#7b4f36" d="M7 13h1v1h-1zM12 13h3v1h-3z"/><path fill="#bf7546" d="M8 13h4v1h-4zM15 13h5v1h-5z"/><path fill="#d3a181" d="M20 13h2v1h-2z"/><path fill="#705d52" d="M3 14h1v1h-1z"/><path fill="#3f2517" d="M4 14h1v1h-1z"/><path fill="#322019" d="M5 14h1v1h-1z"/><path fill="#7a4d35" d="M6 14h1v1h-1zM11 14h1v1h-1zM15 14h1v1h-1z"/><path fill="#bd7244" d="M7 14h4v1h-4zM16 14h5v1h-5z"/><path fill="#d29f80" d="M21 14h1v1h-1z"/><path fill="#6f5b52" d="M0 15h3v1h-3z"/><path fill="#3d2316" d="M3 15h2v1h-2z"/><path fill="#311f19" d="M5 15h1v1h-1z"/><path fill="#784b34" d="M6 15h1v1h-1zM16 15h1v1h-1z"/><path fill="#ba6f42" d="M7 15h4v1h-4zM17 15h3v1h-3z"/><path fill="#583a2c" d="M20 15h1v1h-1z"/><path fill="#d09d7e" d="M21 15h2v1h-2z"/><path fill="#6d5b51" d="M1 16h1v1h-1z"/><path fill="#3b2215" d="M2 16h3v1h-3z"/><path fill="#2f1e18" d="M5 16h1v1h-1z"/><path fill="#774a32" d="M6 16h1v1h-1zM17 16h1v1h-1z"/><path fill="#b86d40" d="M7 16h3v1h-3zM18 16h4v1h-4z"/><path fill="#cf9c7d" d="M10 16h1v1h-1zM22 16h1v1h-1z"/><path fill="#6c5a51" d="M2 17h1v1h-1z"/><path fill="#392115" d="M3 17h2v1h-2z"/><path fill="#2e1d18" d="M5 17h1v1h-1z"/><path fill="#754831" d="M6 17h1v1h-1z"/><path fill="#b56a3e" d="M7 17h3v1h-3zM18 17h2v1h-2z"/><path fill="#cd9a7c" d="M10 17h1v1h-1zM22 17h1v1h-1z"/><path fill="#56382b" d="M20 17h2v1h-2z"/><path fill="#6b5950" d="M2 18h1v1h-1z"/><path fill="#382014" d="M3 18h1v1h-1z"/><path fill="#2d1d17" d="M4 18h1v1h-1z"/><path fill="#744730" d="M5 18h1v1h-1zM18 18h4v1h-4z"/><path fill="#b3673c" d="M6 18h4v1h-4z"/><path fill="#cb987a" d="M10 18h1v1h-1zM22 18h1v1h-1z"/><path fill="#69584f" d="M2 19h1v1h-1z"/><path fill="#361f13" d="M3 19h1v1h-1z"/><path fill="#2c1c17" d="M4 19h1v1h-1z"/><path fill="#72452f" d="M5 19h1v1h-1z"/><path fill="#b0653a" d="M6 19h4v1h-4z"/><path fill="#c99679" d="M10 19h1v1h-1z"/><path fill="#68584f" d="M0 20h2v1h-2z"/><path fill="#341e12" d="M2 20h2v1h-2z"/><path fill="#2a1b16" d="M4 20h1v1h-1z"/><path fill="#71442e" d="M5 20h1v1h-1z"/><path fill="#ae6238" d="M6 20h4v1h-4z"/><path fill="#c89478" d="M10 20h1v1h-1z"/><path fill="#66564f" d="M1 21h1v1h-1z"/><path fill="#321c12" d="M2 21h2v1h-2z"/><path fill="#291a16" d="M4 21h1v1h-1z"/><path fill="#6f422c" d="M5 21h1v1h-1z"/><path fill="#ab5f36" d="M6 21h4v1h-4z"/><path fill="#c69276" d="M10 21h2v1h-2z"/><path fill="#65554e" d="M2 22h1v1h-1z"/><path fill="#301b11" d="M3 22h1v1h-1z"/><path fill="#281915" d="M4 22h1v1h-1z"/><path fill="#6e412b" d="M5 22h1v1h-1z"/><path fill="#a95d34" d="M6 22h5v1h-5z"/><path fill="#c59175" d="M11 22h1v1h-1z"/><path fill="#64554d" d="M3 23h1v1h-1z"/><path fill="#261914" d="M4 23h1v1h-1z"/><path fill="#6c3f2a" d="M5 23h6v1h-6z"/><path fill="#c28f74" d="M11 23h1v1h-1z"/><path class="horse-glint" fill="#ffffff" d="M15 8h1v1h-1z"/></svg>
