<svg xmlns="http://www.w3.org/2000/svg" viewBox="0 0 16 16" shape-rendering="crispEdges">
<style>.dark{display:none}@media (prefers-color-scheme:dark){.light{display:none}.dark{display:inline}}</style>
<g class="light"><path fill="#e7b690" d="M7 1h1v1h-1zM9 1h1v1h-1z"/><path fill="#806659" d="M6 2h1v1h-1z"/><path fill="#e4b38e" d="M7 2h3v1h-3z"/><path fill="#7e6558" d="M5 3h1v1h-1z"/><path fill="#3e281e" d="M6 3h1v1h-1z"/><path fill="#885c40" d="M7 3h1v1h-1z"/><path fill="#d48b56" d="M8 3h1v1h-1z"/><path fill="#e2b08c" d="M9 3h2v1h-2z"/><path fill="#7b6457" d="M3 4h2v1h-2z"/><path fill="#4e2e1d" d="M5 4h1v1h-1z"/><path fill="#3c261d" d="M6 4h1v1h-1z"/><path fill="#865a3e" d="M7 4h1v1h-1z"/><path fill="#d18753" d="M8 4h2v1h-2z"/><path fill="#e0ad8a" d="M10 4h2v1h-2z"/><path fill="#796256" d="M1 5h2v1h-2z"/><path fill="#4b2c1c" d="M3 5h2v1h-2z"/><path fill="#3a251d" d="M5 5h1v1h-1z"/><path fill="#84573c" d="M6 5h1v1h-1z"/><path fill="#2a2b3d" d="M7 5h5v1h-5z"/><path fill="#ddab88" d="M12 5h1v1h-1z"/><path fill="#776155" d="M2 6h1v1h-1z"/><path fill="#482a1b" d="M3 6h2v1h-2z"/><path fill="#38241c" d="M5 6h1v1h-1z"/><path fill="#81553a" d="M6 6h1v1h-1z"/><path fill="#c97f4d" d="M7 6h3v1h-3z"/><path fill="#0b0b10" d="M10 6h2v1h-2z"/><path fill="#daa886" d="M12 6h1v1h-1z"/><path fill="#755f55" d="M0 7h2v1h-2z"/><path fill="#45281a" d="M2 7h2v1h-2z"/><path fill="#36221b" d="M4 7h1v1h-1z"/><path fill="#7f5338" d="M5 7h1v1h-1z"/><path fill="#c57b4a" d="M6 7h6v1h-6z"/><path fill="#d8a584" d="M12 7h2v1h-2z"/><path fill="#735e53" d="M1 8h1v1h-1z"/><path fill="#432718" d="M2 8h2v1h-2z"/><path fill="#35221a" d="M4 8h1v1h-1z"/><path fill="#7d5037" d="M5 8h1v1h-1zM8 8h2v1h-2z"/><path fill="#c17647" d="M6 8h2v1h-2zM10 8h3v1h-3z"/><path fill="#d5a282" d="M13 8h1v1h-1z"/><path fill="#715d52" d="M2 9h1v1h-1z"/><path fill="#402517" d="M3 9h1v1h-1z"/><path fill="#332019" d="M4 9h1v1h-1z"/><path fill="#7a4d35" d="M5 9h1v1h-1zM7 9h1v1h-1zM10 9h1v1h-1z"/><path fill="#bd7244" d="M6 9h1v1h-1zM11 9h2v1h-2z"/><path fill="#d29f80" d="M13 9h2v1h-2z"/><path fill="#6f5b52" d="M0 10h2v1h-2z"/><path fill="#3d2316" d="M2 10h1v1h-1z"/><path fill="#311f19" d="M3 10h1v1h-1z"/><path fill="#784b33" d="M4 10h1v1h-1zM11 10h1v1h-1z"/><path fill="#b96e41" d="M5 10h2v1h-2zM12 10h1v1h-1z"/><path fill="#57392c" d="M13 10h1v1h-1z"/><path fill="#cf9c7e" d="M14 10h1v1h-1z"/><path fill="#6c5a51" d="M1 11h1v1h-1z"/><path fill="#3a2115" d="M2 11h1v1h-1z"/><path fill="#2e1d18" d="M3 11h1v1h-1z"/><path fill="#754831" d="M4 11h1v1h-1zM12 11h2v1h-2z"/><path fill="#b56a3e" d="M5 11h1v1h-1z"/><path fill="#cd9a7c" d="M6 11h1v1h-1zM14 11h1v1h-1z"/><path fill="#6a5850" d="M1 12h1v1h-1z"/><path fill="#2c1c17" d="M2 12h1v1h-1z"/><path fill="#74462f" d="M3 12h1v1h-1z"/><path fill="#b2663b" d="M4 12h2v1h-2z"/><path fill="#cb977a" d="M6 12h1v1h-1z"/><path fill="#68584f" d="M0 13h1v1h-1z"/><path fill="#341e12" d="M1 13h1v1h-1z"/><path fill="#2a1b16" d="M2 13h1v1h-1z"/><path fill="#71442e" d="M3 13h1v1h-1z"/><path fill="#ae6238" d="M4 13h2v1h-2z"/><path fill="#c89478" d="M6 13h1v1h-1z"/><path fill="#66564e" d="M1 14h1v1h-1z"/><path fill="#281a15" d="M2 14h1v1h-1z"/><path fill="#6f412c" d="M3 14h1v1h-1z"/><path fill="#aa5e35" d="M4 14h2v1h-2z"/><path fill="#c59276" d="M6 14h2v1h-2z"/><path fill="#64554d" d="M2 15h1v1h-1z"/><path fill="#6c3f2a" d="M3 15h4v1h-4z"/><path fill="#c28f74" d="M7 15h1v1h-1z"/><path class="horse-glint" fill="#ffffff" d="M10 5h1v1h-1z"/></g>
<g class="dark"><path fill="#b4c8fa" d="M7 1h1v1h-1zM9 1h1v1h-1z"/><path fill="#fea9c9" d="M6 2h1v1h-1z"/><path fill="#b7c8fa" d="M7 2h3v1h-3z"/><path fill="#fea8c8" d="M5 3h1v1h-1z"/><path fill="#aa5779" d="M6 3h1v1h-1z"/><path fill="#546295" d="M7 3h1v1h-1z"/><path fill="#87a0f7" d="M8 3h1v1h-1z"/><path fill="#b9c8fa" d="M9 3h2v1h-2z"/><path fill="#fea8c6" d="M3 4h2v1h-2z"/><path fill="#fd7ca9" d="M5 4h1v1h-1z"/><path fill="#aa5777" d="M6 4h1v1h-1z"/><path fill="#566295" d="M7 4h1v1h-1z"/><path fill="#8ba0f7" d="M8 4h2v1h-2z"/><path fill="#bcc8fa" d="M10 4h2v1h-2z"/><path fill="#fda7c5" d="M1 5h2v1h-2z"/><path fill="#fc7ba7" d="M3 5h2v1h-2z"/><path fill="#a95776" d="M5 5h1v1h-1z"/><path fill="#596195" d="M6 5h1v1h-1z"/><path fill="#2a2b3d" d="M7 5h5v1h-5z"/><path fill="#bfc7fa" d="M12 5h1v1h-1z"/><path fill="#fda7c3" d="M2 6h1v1h-1z"/><path fill="#fc7ba4" d="M3 6h2v1h-2z"/><path fill="#a95774" d="M5 6h1v1h-1z"/><path fill="#5b6195" d="M6 6h1v1h-1z"/><path fill="#949ff7" d="M7 6h3v1h-3z"/><path fill="#0b0b10" d="M10 6h2v1h-2z"/><path fill="#c1c7fa" d="M12 6h1v1h-1z"/><path fill="#fca7c1" d="M0 7h2v1h-2z"/><path fill="#fb7aa2" d="M2 7h2v1h-2z"/><path fill="#a95672" d="M4 7h1v1h-1z"/><path fill="#5e6195" d="M5 7h1v1h-1z"/><path fill="#989ef7" d="M6 7h6v1h-6z"/><path fill="#c3c7fa" d="M12 7h2v1h-2z"/><path fill="#fca7bf" d="M1 8h1v1h-1z"/><path fill="#fb7a9f" d="M2 8h2v1h-2z"/><path fill="#a95671" d="M4 8h1v1h-1z"/><path fill="#606195" d="M5 8h1v1h-1zM8 8h2v1h-2z"/><path fill="#9d9ef7" d="M6 8h2v1h-2zM10 8h3v1h-3z"/><path fill="#c6c7fa" d="M13 8h1v1h-1z"/><path fill="#fca6be" d="M2 9h1v1h-1z"/><path fill="#fa799d" d="M3 9h1v1h-1z"/><path fill="#a8556f" d="M4 9h1v1h-1z"/><path fill="#626095" d="M5 9h1v1h-1zM7 9h1v1h-1zM10 9h1v1h-1z"/><path fill="#a19df7" d="M6 9h1v1h-1zM11 9h2v1h-2z"/><path fill="#c8c6fa" d="M13 9h2v1h-2z"/><path fill="#fca6bc" d="M0 10h2v1h-2z"/><path fill="#fa799a" d="M2 10h1v1h-1z"/><path fill="#a8556d" d="M3 10h1v1h-1z"/><path fill="#656095" d="M4 10h1v1h-1zM11 10h1v1h-1z"/><path fill="#a59df7" d="M5 10h2v1h-2zM12 10h1v1h-1z"/><path fill="#4f4c75" d="M13 10h1v1h-1z"/><path fill="#cbc6fa" d="M14 10h1v1h-1z"/><path fill="#fba5bb" d="M1 11h1v1h-1z"/><path fill="#f97898" d="M2 11h1v1h-1z"/><path fill="#a7556c" d="M3 11h1v1h-1z"/><path fill="#676095" d="M4 11h1v1h-1zM12 11h2v1h-2z"/><path fill="#aa9cf7" d="M5 11h1v1h-1z"/><path fill="#cec6fa" d="M6 11h1v1h-1zM14 11h1v1h-1z"/><path fill="#fba5b9" d="M1 12h1v1h-1z"/><path fill="#a7556a" d="M2 12h1v1h-1z"/><path fill="#6a6095" d="M3 12h1v1h-1z"/><path fill="#ae9cf7" d="M4 12h2v1h-2z"/><path fill="#d0c6fa" d="M6 12h1v1h-1z"/><path fill="#faa5b7" d="M0 13h1v1h-1z"/><path fill="#f87793" d="M1 13h1v1h-1z"/><path fill="#a75469" d="M2 13h1v1h-1z"/><path fill="#6c5f95" d="M3 13h1v1h-1z"/><path fill="#b29bf7" d="M4 13h2v1h-2z"/><path fill="#d2c5fa" d="M6 13h1v1h-1z"/><path fill="#faa5b5" d="M1 14h1v1h-1z"/><path fill="#a75467" d="M2 14h1v1h-1z"/><path fill="#6f5f95" d="M3 14h1v1h-1z"/><path fill="#b79bf7" d="M4 14h2v1h-2z"/><path fill="#d5c5fa" d="M6 14h2v1h-2z"/><path fill="#faa4b4" d="M2 15h1v1h-1z"/><path fill="#715f95" d="M3 15h4v1h-4z"/><path fill="#d8c4fa" d="M7 15h1v1h-1z"/><path class="horse-glint" fill="#ffffff" d="M10 5h1v1h-1z"/></g>
</svg>
